<svg width="13" height="15" viewBox="0 0 13 15" fill="none" xmlns="http://www.w3.org/2000/svg">
<path d="M10.8333 15C10.2315 15 9.71991 14.7813 9.29861 14.3438C8.87732 13.9063 8.66667 13.375 8.66667 12.75C8.66667 12.675 8.68472 12.5 8.72083 12.225L3.64722 9.15C3.45463 9.3375 3.23194 9.48438 2.97917 9.59063C2.72639 9.69688 2.45556 9.75 2.16667 9.75C1.56481 9.75 1.05324 9.53125 0.631944 9.09375C0.210648 8.65625 0 8.125 0 7.5C0 6.875 0.210648 6.34375 0.631944 5.90625C1.05324 5.46875 1.56481 5.25 2.16667 5.25C2.45556 5.25 2.72639 5.30313 2.97917 5.40938C3.23194 5.51562 3.45463 5.6625 3.64722 5.85L8.72083 2.775C8.69676 2.6875 8.68171 2.60313 8.67569 2.52188C8.66968 2.44063 8.66667 2.35 8.66667 2.25C8.66667 1.625 8.87732 1.09375 9.29861 0.65625C9.71991 0.21875 10.2315 0 10.8333 0C11.4352 0 11.9468 0.21875 12.3681 0.65625C12.7894 1.09375 13 1.625 13 2.25C13 2.875 12.7894 3.40625 12.3681 3.84375C11.9468 4.28125 11.4352 4.5 10.8333 4.5C10.5444 4.5 10.2736 4.44688 10.0208 4.34063C9.76806 4.23438 9.54537 4.0875 9.35278 3.9L4.27917 6.975C4.30324 7.0625 4.31829 7.14688 4.32431 7.22813C4.33032 7.30938 4.33333 7.4 4.33333 7.5C4.33333 7.6 4.33032 7.69063 4.32431 7.77188C4.31829 7.85313 4.30324 7.9375 4.27917 8.025L9.35278 11.1C9.54537 10.9125 9.76806 10.7656 10.0208 10.6594C10.2736 10.5531 10.5444 10.5 10.8333 10.5C11.4352 10.5 11.9468 10.7188 12.3681 11.1562C12.7894 11.5938 13 12.125 13 12.75C13 13.375 12.7894 13.9063 12.3681 14.3438C11.9468 14.7813 11.4352 15 10.8333 15ZM10.8333 13.5C11.038 13.5 11.2095 13.4281 11.3479 13.2844C11.4863 13.1406 11.5556 12.9625 11.5556 12.75C11.5556 12.5375 11.4863 12.3594 11.3479 12.2156C11.2095 12.0719 11.038 12 10.8333 12C10.6287 12 10.4572 12.0719 10.3188 12.2156C10.1803 12.3594 10.1111 12.5375 10.1111 12.75C10.1111 12.9625 10.1803 13.1406 10.3188 13.2844C10.4572 13.4281 10.6287 13.5 10.8333 13.5ZM2.16667 8.25C2.3713 8.25 2.54282 8.17813 2.68125 8.03438C2.81968 7.89063 2.88889 7.7125 2.88889 7.5C2.88889 7.2875 2.81968 7.10938 2.68125 6.96563C2.54282 6.82188 2.3713 6.75 2.16667 6.75C1.96204 6.75 1.79051 6.82188 1.65208 6.96563C1.51366 7.10938 1.44444 7.2875 1.44444 7.5C1.44444 7.7125 1.51366 7.89063 1.65208 8.03438C1.79051 8.17813 1.96204 8.25 2.16667 8.25ZM10.8333 3C11.038 3 11.2095 2.92813 11.3479 2.78438C11.4863 2.64062 11.5556 2.4625 11.5556 2.25C11.5556 2.0375 11.4863 1.85938 11.3479 1.71563C11.2095 1.57188 11.038 1.5 10.8333 1.5C10.6287 1.5 10.4572 1.57188 10.3188 1.71563C10.1803 1.85938 10.1111 2.0375 10.1111 2.25C10.1111 2.4625 10.1803 2.64062 10.3188 2.78438C10.4572 2.92813 10.6287 3 10.8333 3Z" fill="white"/>
</svg>
