<svg width="200" height="83" viewBox="0 0 200 83" fill="none" xmlns="http://www.w3.org/2000/svg">
<path d="M36.5587 49.0638V28.2382L39.5992 21.6416V46.0242H42.7139V7.70748L23.8783 48.2478L9.12136 21.4191V49.0628H0V0.296753H7.93468L23.2112 28.0889L35.9659 0.296753H39.3032L23.4339 34.7588L6.08187 3.33542H3.04142V46.0242H6.08187V9.56112L23.7308 41.5779L42.7148 0.296753H45.7553V49.0628H36.5597L36.5587 49.0638Z" fill="black"/>
<path d="M80.9046 49.0638L76.7517 36.8349H62.1433L57.9161 49.0638H48.1277L64.7384 0.297668H74.4526L71.042 10.5987L78.0126 30.7576H60.8081L66.0735 15.3426L67.7788 20.3082L65.1095 27.7189H73.638L67.7798 10.5245L70.2274 3.33537H66.9642L52.2806 46.0241H55.5437L59.7709 33.7953H78.9766L83.1295 46.0241H86.3927L74.3051 10.5987L76.0104 5.70735L90.7673 49.0628H80.9046V49.0638Z" fill="black"/>
<path d="M112.569 49.4338C99.3691 49.4338 89.3589 37.5758 89.3589 24.8286H89.73C89.73 37.7242 100.037 46.3951 112.57 46.3951C121.766 46.3951 129.256 39.3543 131.628 30.7576H117.093V33.7963H127.104C124.138 39.3543 119.095 43.4306 112.569 43.4306C101.446 43.4306 92.6211 33.4254 92.6211 22.605C92.6211 10.9697 100.111 0 112.569 0C122.21 0 130.366 6.74403 133.778 15.5643H123.544C121.097 11.8589 117.018 9.26437 112.569 9.26437C104.412 9.26437 99.3691 17.3428 99.3691 24.8277H98.9979C98.9979 16.231 102.261 6.07734 112.568 6.07734C117.462 6.07734 122.06 8.6709 125.1 12.4504H128.883C125.323 6.74403 119.391 3.03867 112.568 3.03867C102.112 3.03867 95.6606 12.8214 95.6606 22.4557C95.6606 31.275 103.447 40.391 112.568 40.391C115.906 40.391 118.279 38.9824 120.726 36.834H114.052V27.718H135.408C134.074 39.3534 124.582 49.4338 112.568 49.4338H112.569Z" fill="black"/>
<path d="M140.23 49.0638V0.297668H149.351V3.33634H143.271V46.0251H146.311V6.37501H149.352V49.0638H140.231H140.23Z" fill="black"/>
<path d="M190.953 18.603C188.802 12.4514 184.352 9.117 177.827 9.117C169.448 9.117 164.554 17.047 164.554 24.6813H164.183C164.183 16.0104 167.445 6.07929 177.753 6.07929C184.056 6.07929 189.84 9.85884 192.658 15.4911H195.773C192.584 8.30193 185.762 2.96547 177.753 2.96547C165.592 2.96547 160.919 14.0825 160.919 24.6813C160.919 33.278 169.521 40.3187 177.753 40.3187C182.276 40.3187 186.058 37.2801 188.579 33.7221H199.036C195.699 42.5414 187.394 49.4338 177.753 49.4338C164.479 49.4338 154.542 37.3533 154.542 24.6061H154.913C154.913 37.4275 165.221 46.3219 177.753 46.3219C184.427 46.3219 190.507 42.2456 194.068 36.8359H190.137C186.948 40.3929 182.647 43.2832 177.753 43.2832C167.593 43.2832 157.805 35.4274 157.805 24.9038C157.805 12.3782 163.589 0.00195312 177.753 0.00195312C188.505 0.00195312 197.404 8.45126 200 18.6039H190.953V18.603Z" fill="black"/>
<path fill-rule="evenodd" clip-rule="evenodd" d="M138.276 59.6375C133.015 59.6442 129.77 63.3573 129.782 71.0647C129.795 78.7423 133.005 82.4468 138.309 82.44C143.605 82.4304 146.812 78.7202 146.803 71.0416C146.793 63.3669 143.538 59.6278 138.276 59.6375ZM138.301 79.1094C135.735 79.1123 134.64 76.0043 134.634 71.058C134.624 66.1088 135.713 62.9681 138.279 62.9652C140.848 62.9623 141.943 66.0771 141.95 71.0484C141.957 75.9946 140.867 79.1027 138.301 79.1094ZM165.426 60.098L165.448 75.6343C165.455 78.9138 163.62 82.3726 158.081 82.3822C153.088 82.3889 150.666 79.7819 150.66 75.6565L150.637 60.1173L155.193 60.1105L155.213 75.3511C155.215 78.0448 156.362 79.1094 158.017 79.1065C160.004 79.1036 160.908 77.7683 160.905 75.3414L160.883 60.1047L165.426 60.098ZM116.52 82.0729L116.488 60.1616L121.038 60.1548L121.064 78.4235L127.874 78.4138L127.876 82.0566L116.52 82.0729ZM100.558 82.0912L100.522 60.1799L112.377 60.1635L112.384 63.5326L105.075 63.5452L105.082 68.9452L111.367 68.9356L111.37 72.3018L105.085 72.3114L105.094 78.7154L112.648 78.7028L112.651 82.0749L100.558 82.0912ZM85.34 82.1105L85.3082 60.203L89.8582 60.1934L89.8843 78.462L96.6843 78.4524L96.6872 82.0951L85.3409 82.1115M70.9455 82.1288L70.9137 60.2175L82.2022 60.2011L82.2051 63.5731L75.4599 63.5827L75.4696 69.1976L81.4551 69.188L81.4618 72.5475L75.4763 72.5571L75.4889 82.1211L70.9455 82.1288ZM56.5675 82.1481L56.5357 60.2406L67.8183 60.2213L67.8212 63.5904L61.079 63.6001L61.0857 69.2188L67.0712 69.2092L67.078 72.5716L61.0925 72.5783L61.1089 82.1423L56.5694 82.149M45.7456 60.1789L34.5208 82.2059L39.4729 82.1991L41.8135 77.3174L48.1595 77.3078L48.1566 82.1866L52.7317 82.1799L52.6864 60.1693L45.7456 60.1789ZM48.1701 73.9223L43.4205 73.929L47.9474 64.4171H48.1566L48.1691 73.9233L48.1701 73.9223Z" fill="black"/>
</svg>
